<?xml version="1.0" encoding="UTF-8" ?>
<!DOCTYPE svg PUBLIC "-//W3C//DTD SVG 1.1//EN" "http://www.w3.org/Graphics/SVG/1.1/DTD/svg11.dtd">
<svg width="193pt" height="193pt" viewBox="0 0 193 193" version="1.1" xmlns="http://www.w3.org/2000/svg">
<g id="#000000e0">
<path fill="#E0E0E1" opacity="0.88" d=" M 14.58 0.00 L 178.41 0.00 C 181.94 1.49 185.75 2.74 188.63 5.35 C 190.68 8.11 191.76 11.44 193.00 14.61 L 193.00 179.42 C 191.56 182.37 190.04 185.37 187.76 187.78 C 185.21 190.34 181.76 191.71 178.45 193.00 L 13.52 193.00 C 10.51 191.65 7.45 190.24 4.97 188.02 C 2.46 185.37 1.19 181.84 0.00 178.46 L 0.00 14.59 C 1.36 11.25 2.59 7.73 4.95 4.95 C 7.72 2.59 11.25 1.36 14.58 0.00 M 7.99 6.30 C 27.69 26.49 47.90 46.20 67.72 66.28 C 70.51 69.19 73.82 71.50 76.75 74.25 C 83.56 80.87 90.02 87.86 97.00 94.30 C 98.79 92.66 100.58 91.01 102.28 89.28 C 129.76 61.54 157.62 34.17 184.99 6.33 C 181.85 4.80 178.67 2.86 175.04 2.97 C 122.69 3.02 70.32 3.01 17.97 2.97 C 14.32 2.79 11.03 4.49 7.99 6.30 M 6.11 8.83 C 4.08 11.45 2.80 14.61 2.97 17.97 C 3.02 70.32 3.00 122.68 2.98 175.03 C 2.88 178.68 4.40 182.05 6.10 185.19 C 7.87 183.60 9.62 181.98 11.28 180.28 C 38.87 152.43 66.84 124.96 94.31 97.00 C 91.74 94.13 89.01 91.43 86.25 88.75 C 62.09 64.58 37.92 40.42 13.75 16.25 C 11.30 13.69 8.79 11.17 6.11 8.83 M 178.75 17.75 C 153.40 43.06 128.11 68.43 102.74 93.73 C 101.71 94.80 100.70 95.90 99.70 97.00 C 100.70 98.10 101.71 99.20 102.74 100.27 C 128.27 125.74 153.74 151.27 179.25 176.75 C 181.95 179.38 184.28 182.48 187.68 184.28 C 188.85 181.32 190.05 178.27 190.02 175.03 C 190.00 122.68 189.99 70.32 190.03 17.97 C 190.15 15.01 189.08 12.23 187.82 9.61 C 184.18 11.57 181.68 14.93 178.75 17.75 M 89.25 107.25 C 66.08 130.41 42.91 153.58 19.75 176.75 C 16.14 180.43 12.31 183.91 8.91 187.79 C 15.19 190.89 22.26 189.93 29.00 190.00 C 77.68 190.02 126.36 189.99 175.04 190.02 C 178.68 190.12 182.05 188.60 185.19 186.90 C 161.95 163.12 138.16 139.87 114.78 116.22 C 112.80 114.19 110.66 112.31 108.44 110.54 C 104.30 107.28 101.02 103.11 97.00 99.71 C 94.30 102.10 91.75 104.65 89.25 107.25 Z" />
</g>
</svg>
