<?xml version="1.0" encoding="UTF-8" ?>
<!DOCTYPE svg PUBLIC "-//W3C//DTD SVG 1.1//EN" "http://www.w3.org/Graphics/SVG/1.1/DTD/svg11.dtd">
<svg width="496pt" height="536pt" viewBox="0 0 496 536" version="1.1" xmlns="http://www.w3.org/2000/svg">
<g id="#ededefff">
<path fill="#ededef" opacity="1.00" d=" M 494.14 0.00 L 496.00 0.00 L 496.00 0.89 L 495.15 1.16 C 494.90 0.87 494.39 0.29 494.14 0.00 Z" />
<path fill="#ededef" opacity="1.00" d=" M 240.69 88.31 C 247.95 86.67 255.32 88.11 262.53 89.20 C 271.20 90.60 279.23 94.33 287.15 97.98 C 292.83 100.60 296.56 105.82 301.04 109.97 C 308.03 116.10 310.27 125.52 314.01 133.67 C 318.07 150.17 314.93 167.26 312.91 183.82 C 314.72 184.59 317.42 184.57 318.21 186.71 C 320.17 191.20 319.20 196.24 319.41 201.00 C 318.56 211.10 319.21 222.22 312.88 230.82 C 311.03 231.69 308.92 231.65 306.93 231.96 C 303.80 245.40 301.38 259.63 292.90 270.95 C 291.24 273.45 288.36 275.64 288.60 278.94 C 288.64 288.97 288.54 299.01 288.64 309.05 C 288.38 311.95 291.41 313.41 293.59 314.51 C 300.79 317.51 307.60 321.34 314.80 324.33 C 319.22 327.47 324.81 327.88 329.41 330.66 C 330.66 331.33 331.94 331.98 333.29 332.45 C 342.38 334.96 350.50 340.51 360.01 341.58 C 369.64 342.61 378.95 345.77 387.32 350.61 C 399.77 355.56 408.65 366.11 416.78 376.31 C 420.10 380.20 422.14 384.94 424.38 389.49 C 425.49 391.86 426.75 394.30 426.63 397.00 C 426.65 414.56 426.49 432.12 426.71 449.67 C 309.14 449.54 191.56 449.63 73.99 449.63 C 71.61 449.34 68.72 450.36 66.67 448.99 C 66.47 435.33 66.72 421.66 66.57 408.00 C 66.03 396.08 73.79 386.23 79.21 376.30 C 83.48 367.88 91.11 362.09 98.27 356.30 C 101.79 353.51 106.19 352.28 109.99 349.97 C 116.22 346.23 123.23 343.83 130.39 342.66 C 142.92 341.13 154.68 336.28 166.11 331.18 C 178.59 325.84 191.02 320.40 203.17 314.34 C 204.81 313.28 207.55 312.48 207.34 310.06 C 207.24 299.36 207.46 288.66 207.44 277.97 C 207.57 275.95 205.62 274.85 204.55 273.42 C 199.38 267.67 196.88 260.27 193.93 253.28 C 191.27 246.63 190.80 239.46 189.56 232.49 C 186.55 231.97 182.71 232.15 181.25 228.87 C 177.88 222.61 177.65 215.24 176.93 208.31 C 175.82 202.02 175.77 195.53 177.00 189.25 C 177.57 186.49 179.95 184.76 182.61 184.30 C 182.87 177.96 181.99 171.67 180.78 165.47 C 179.54 153.76 178.97 141.45 183.52 130.32 C 186.05 125.12 188.10 119.44 192.47 115.43 C 200.01 108.32 206.78 99.83 216.51 95.60 C 223.99 91.57 232.25 89.17 240.69 88.31 Z" />
</g>
</svg>
